<svg xmlns="http://www.w3.org/2000/svg" xmlns:xlink="http://www.w3.org/1999/xlink" version="1.1" x="0px" y="0px" viewBox="0 0 100 125" enable-background="new 0 0 100 100" xml:space="preserve"><g><path fill-rule="evenodd" clip-rule="evenodd" d="M14.842,39.88c10.407,4.529,20.749,9.206,31.063,13.941   c2.577,1.185,4.915,1.208,7.474,0.044c10.432-4.747,20.894-9.426,31.36-14.092c1.711-0.762,2.379-2.041,2.376-3.805   c0.009-1.832-0.766-3.108-2.439-3.986c-10.593-5.555-21.164-11.149-31.729-16.758c-1.961-1.042-3.898-1.117-5.897-0.21   c-0.555,0.251-1.104,0.516-1.641,0.8C35.32,21.136,25.233,26.462,15.146,31.789c-0.685,0.361-1.388,0.693-1.896,1.314   C11.404,35.354,12.181,38.722,14.842,39.88z M18.643,35.018c9.898-5.332,19.806-10.646,29.691-16   c0.907-0.491,1.615-0.63,2.594-0.099C61.003,24.386,71.109,29.8,81.203,35.237c0.33,0.177,0.742,0.272,0.901,0.695   c-0.337,0.402-0.843,0.492-1.288,0.68c-9.896,4.176-19.801,8.332-29.688,12.534c-0.99,0.421-1.809,0.436-2.809,0.011   c-9.835-4.181-19.69-8.311-29.538-12.46c-0.505-0.213-0.996-0.462-1.504-0.7C17.594,35.407,18.167,35.274,18.643,35.018z"/><path fill-rule="evenodd" clip-rule="evenodd" d="M87.404,63.943c-0.451-0.105-0.688,0.068-0.928,0.186   C74.883,69.806,63.056,74.98,51.383,80.487c-1.233,0.582-2.197,0.532-3.408-0.033c-9.991-4.658-20.014-9.247-30.024-13.866   c-1.953-0.901-3.889-1.842-6-2.842c-0.08,1.243,0.164,2.213,0.392,3.178c0.366,1.547,1.236,2.578,2.768,3.258   c10.431,4.628,20.84,9.307,31.225,14.037c2.238,1.02,4.354,1.078,6.557,0.055c1.91-0.887,3.841-1.725,5.761-2.588   c8.589-3.861,17.177-7.725,25.768-11.583c0.711-0.319,1.449-0.597,1.861-1.321C87.147,67.27,87.502,65.648,87.404,63.943z"/><path fill-rule="evenodd" clip-rule="evenodd" d="M15.399,55.222c10.288,4.526,20.534,9.149,30.758,13.817   c2.338,1.067,4.502,1.148,6.85,0.082c10.588-4.805,21.205-9.547,31.816-14.301c0.625-0.28,1.18-0.625,1.514-1.234   c0.81-1.48,1.174-3.055,1.057-4.704c-0.484-0.17-0.758,0.073-1.045,0.213C74.701,54.773,62.837,59.987,51.113,65.5   c-0.995,0.469-1.782,0.477-2.784,0.012c-10.242-4.764-20.51-9.473-30.766-14.205c-1.801-0.831-3.583-1.703-5.528-2.631   c-0.231,0.927,0.026,1.624,0.132,2.325C12.469,52.996,13.415,54.348,15.399,55.222z"/></g><text x="0" y="115" fill="#000000" font-size="5px" font-weight="bold" font-family="'Helvetica Neue', Helvetica, Arial-Unicode, Arial, Sans-serif">Created by Alexandr Cherkinsky</text><text x="0" y="120" fill="#000000" font-size="5px" font-weight="bold" font-family="'Helvetica Neue', Helvetica, Arial-Unicode, Arial, Sans-serif">from the Noun Project</text></svg>