<svg xmlns="http://www.w3.org/2000/svg" xmlns:xlink="http://www.w3.org/1999/xlink" version="1.1" x="0px" y="0px" viewBox="0 0 32 40" enable-background="new 0 0 32 32" xml:space="preserve"><g><g><path fill="#000000" d="M16,31.3C7.6,31.3,0.8,24.4,0.8,16S7.6,0.8,16,0.8S31.3,7.6,31.3,16S24.4,31.3,16,31.3z M16,2.3    C8.4,2.3,2.3,8.4,2.3,16S8.4,29.8,16,29.8S29.8,23.6,29.8,16S23.6,2.3,16,2.3z"/></g><g><path fill="#000000" d="M16.8,22.1h-1.5v-0.3c0-2.2,1.2-4.2,3.1-5.5c1.3-0.8,2.1-2.3,2.1-3.9c0-2.4-2.1-4.4-4.4-4.4    c-1.2,0-2.4,0.4-3.2,1.3c-0.9,0.9-1.3,2-1.3,3.2H10c0-1.6,0.6-3.1,1.8-4.3c1.2-1.1,2.7-1.7,4.3-1.7c3.2,0,5.9,2.7,5.9,5.9    c0,2.1-1,4-2.8,5.1c-1.5,1-2.5,2.5-2.5,4.2V22.1z"/></g><g><rect x="15.3" y="23.2" fill="#000000" width="1.5" height="1.4"/></g></g><text x="0" y="47" fill="#000000" font-size="5px" font-weight="bold" font-family="'Helvetica Neue', Helvetica, Arial-Unicode, Arial, Sans-serif">Created by Creative Stall</text><text x="0" y="52" fill="#000000" font-size="5px" font-weight="bold" font-family="'Helvetica Neue', Helvetica, Arial-Unicode, Arial, Sans-serif">from the Noun Project</text></svg>