<svg xmlns="http://www.w3.org/2000/svg" xmlns:xlink="http://www.w3.org/1999/xlink" version="1.1" x="0px" y="0px" viewBox="0 0 100 125" enable-background="new 0 0 100 100" xml:space="preserve"><text transform="matrix(1 0 0 1 127.1875 16.9702)"><tspan x="0" y="0" fill="#000000" font-family="'ArialMT'" font-size="21">Created By CBi China Bridge </tspan><tspan x="0" y="25.2" fill="#000000" font-family="'ArialMT'" font-size="21">from the Noun Project</tspan></text><text transform="matrix(1 0 0 1 25.6001 190.1514)" fill="#000000" font-family="'ArialMT'" font-size="12">Hierachy</text><g><circle fill="#000000" stroke="#231F20" stroke-width="2" stroke-linecap="round" stroke-linejoin="round" stroke-miterlimit="10" cx="27.745" cy="154.002" r="6.224"/><path fill="#000000" stroke="#231F20" stroke-width="2" stroke-linecap="round" stroke-linejoin="round" stroke-miterlimit="10" d="   M40.938,174.951H14.553c0.086-1.141,0.321-2.243,0.68-3.281c1.14-3.318,3.564-6.037,6.679-7.567   c1.756-0.872,3.742-1.359,5.834-1.359c2.093,0,4.073,0.487,5.834,1.359c3.115,1.524,5.545,4.249,6.68,7.567   C40.616,172.708,40.853,173.811,40.938,174.951z"/><path fill="#000000" stroke="#231F20" stroke-width="2" stroke-linecap="round" stroke-linejoin="round" stroke-miterlimit="10" d="   M78.478,154.002c0,3.438-2.789,6.223-6.223,6.223c-3.438,0-6.225-2.785-6.225-6.223c0-3.437,2.787-6.223,6.225-6.223   C75.688,147.779,78.478,150.565,78.478,154.002z"/><path fill="#000000" stroke="#231F20" stroke-width="2" stroke-linecap="round" stroke-linejoin="round" stroke-miterlimit="10" d="   M85.446,174.951H59.062c0.086-1.141,0.321-2.243,0.68-3.281c1.141-3.318,3.564-6.037,6.68-7.567   c1.755-0.872,3.74-1.359,5.833-1.359s4.073,0.487,5.834,1.359c3.114,1.524,5.544,4.249,6.679,7.567   C85.126,172.708,85.36,173.811,85.446,174.951z"/><path fill="#000000" stroke="#231F20" stroke-width="2" stroke-linecap="round" stroke-linejoin="round" stroke-miterlimit="10" d="   M56.599,115.582c0,3.438-2.789,6.223-6.223,6.223c-3.438,0-6.225-2.785-6.225-6.223c0-3.437,2.787-6.223,6.225-6.223   C53.81,109.359,56.599,112.146,56.599,115.582z"/><path fill="#000000" stroke="#231F20" stroke-width="2" stroke-linecap="round" stroke-linejoin="round" stroke-miterlimit="10" d="   M63.567,136.531H37.183c0.086-1.141,0.32-2.243,0.68-3.281c1.14-3.318,3.564-6.037,6.679-7.567   c1.755-0.872,3.741-1.359,5.833-1.359c2.094,0,4.074,0.487,5.834,1.359c3.115,1.524,5.545,4.249,6.68,7.567   C63.246,134.288,63.481,135.391,63.567,136.531z"/><polyline fill="#000000" stroke="#231F20" stroke-width="2" stroke-linecap="round" stroke-linejoin="round" stroke-miterlimit="10" points="   50.376,141.109 50.376,152.727 40.688,159.139 50.376,152.727 60.062,159.139  "/></g><g><g><path fill="#000000" d="M27.737,69.068c-3.983,0-7.225-3.239-7.225-7.222s3.241-7.223,7.225-7.223c3.982,0,7.223,3.24,7.223,7.223    S31.719,69.068,27.737,69.068z M27.737,56.624c-2.881,0-5.225,2.343-5.225,5.223c0,2.879,2.344,5.222,5.225,5.222    c2.88,0,5.223-2.343,5.223-5.222C32.959,58.967,30.617,56.624,27.737,56.624z"/></g><g><path fill="#000000" d="M40.949,83.795c-0.005,0.001-0.013,0.001-0.02,0H14.543c-0.278,0-0.544-0.116-0.733-0.319    c-0.189-0.205-0.285-0.479-0.264-0.756c0.09-1.199,0.337-2.388,0.731-3.531c1.21-3.523,3.828-6.49,7.183-8.139    c1.924-0.956,4.095-1.463,6.275-1.463c2.206,0,4.318,0.492,6.278,1.464c3.355,1.643,5.975,4.61,7.182,8.14    c0.372,1.08,0.611,2.198,0.714,3.324c0.025,0.089,0.039,0.184,0.039,0.28C41.949,83.347,41.501,83.795,40.949,83.795z     M15.671,81.795h24.13c-0.11-0.661-0.277-1.315-0.497-1.955c-1.037-3.033-3.288-5.582-6.174-6.995    c-1.686-0.835-3.499-1.258-5.395-1.258c-1.873,0-3.737,0.435-5.389,1.256c-2.888,1.419-5.139,3.969-6.179,6.996    C15.948,80.479,15.782,81.133,15.671,81.795z"/></g><g><path fill="#000000" d="M72.246,69.068c-3.983,0-7.225-3.239-7.225-7.222s3.241-7.223,7.225-7.223c3.982,0,7.223,3.24,7.223,7.223    S76.229,69.068,72.246,69.068z M72.246,56.624c-2.881,0-5.225,2.343-5.225,5.223c0,2.879,2.344,5.222,5.225,5.222    c2.88,0,5.223-2.343,5.223-5.222C77.469,58.967,75.126,56.624,72.246,56.624z"/></g><g><path fill="#000000" d="M85.457,83.795c-0.005,0.001-0.013,0.001-0.02,0H59.053c-0.278,0-0.544-0.116-0.733-0.319    c-0.189-0.205-0.285-0.479-0.264-0.756c0.09-1.199,0.337-2.388,0.731-3.531c1.212-3.524,3.83-6.491,7.184-8.139    c1.922-0.956,4.094-1.463,6.274-1.463c2.206,0,4.318,0.492,6.278,1.464c3.354,1.643,5.974,4.61,7.181,8.14    c0.371,1.072,0.611,2.191,0.714,3.324c0.025,0.089,0.039,0.184,0.039,0.28C86.457,83.347,86.01,83.795,85.457,83.795z     M60.181,81.795h24.13c-0.111-0.663-0.277-1.317-0.498-1.954c-1.037-3.034-3.287-5.583-6.173-6.996    c-1.686-0.835-3.499-1.258-5.395-1.258c-1.874,0-3.737,0.435-5.388,1.256c-2.888,1.418-5.138,3.968-6.18,6.996    C60.457,80.479,60.291,81.133,60.181,81.795z"/></g><g><path fill="#000000" d="M50.367,30.649c-3.983,0-7.225-3.24-7.225-7.222c0-3.983,3.241-7.223,7.225-7.223    c3.983,0,7.223,3.24,7.223,7.223C57.59,27.409,54.35,30.649,50.367,30.649z M50.367,18.204c-2.881,0-5.225,2.343-5.225,5.223    c0,2.879,2.344,5.222,5.225,5.222c2.88,0,5.223-2.342,5.223-5.222C55.59,20.547,53.247,18.204,50.367,18.204z"/></g><g><path fill="#000000" d="M63.578,45.375c-0.004,0.001-0.012,0-0.02,0H37.173c-0.278,0-0.544-0.116-0.733-0.32    s-0.285-0.478-0.264-0.755c0.091-1.203,0.337-2.392,0.731-3.533c1.21-3.522,3.828-6.489,7.183-8.138    c1.922-0.956,4.094-1.462,6.274-1.462c2.208,0,4.32,0.492,6.279,1.463c3.355,1.643,5.975,4.61,7.182,8.14    c0.371,1.077,0.611,2.195,0.714,3.324c0.025,0.089,0.039,0.183,0.039,0.28C64.578,44.928,64.131,45.375,63.578,45.375z     M38.3,43.375h24.131c-0.111-0.662-0.277-1.316-0.498-1.955c-1.037-3.034-3.288-5.583-6.174-6.996    c-1.685-0.835-3.498-1.257-5.395-1.257c-1.874,0-3.736,0.434-5.388,1.255c-2.888,1.419-5.139,3.969-6.179,6.997    C38.578,42.058,38.412,42.712,38.3,43.375z"/></g><g><path fill="#000000" d="M40.68,67.983c-0.324,0-0.643-0.158-0.835-0.449c-0.112-0.17-0.166-0.361-0.166-0.551    c0-0.324,0.157-0.643,0.448-0.834l9.239-6.115v-11.08c0-0.552,0.447-1,1-1s1,0.448,1,1v11.08l9.237,6.115    c0.461,0.305,0.587,0.925,0.282,1.386c-0.305,0.46-0.926,0.586-1.386,0.282l-9.134-6.047l-9.136,6.047    C41.061,67.929,40.87,67.983,40.68,67.983z"/></g></g><text x="0" y="115" fill="#000000" font-size="5px" font-weight="bold" font-family="'Helvetica Neue', Helvetica, Arial-Unicode, Arial, Sans-serif">Created by CBi icons</text><text x="0" y="120" fill="#000000" font-size="5px" font-weight="bold" font-family="'Helvetica Neue', Helvetica, Arial-Unicode, Arial, Sans-serif">from the Noun Project</text></svg>